PathFileType	4	(X/Y/Z)	C:\Users\chris\Documents\GitHub\baseballds\vids\pitch7_Sports2D\pitch7_Sports2D_px_person00.trc
DataRate	CameraRate	NumFrames	NumMarkers	Units	OrigDataRate	OrigDataStartFrame	OrigNumFrames
30	30	8	22	m	30	177	236
Frame#	Time	Hip			RHip			RKnee			RAnkle			RBigToe			RSmallToe			RHeel			LHip			LKnee			LAnkle			LBigToe			LSmallToe			LHeel			Neck			Head			Nose			RShoulder			RElbow			RWrist			LShoulder			LElbow			LWrist		
		X1	Y1	Z1	X2	Y2	Z2	X3	Y3	Z3	X4	Y4	Z4	X5	Y5	Z5	X6	Y6	Z6	X7	Y7	Z7	X8	Y8	Z8	X9	Y9	Z9	X10	Y10	Z10	X11	Y11	Z11	X12	Y12	Z12	X13	Y13	Z13	X14	Y14	Z14	X15	Y15	Z15	X16	Y16	Z16	X17	Y17	Z17	X18	Y18	Z18	X19	Y19	Z19	X20	Y20	Z20	X21	Y21	Z21	X22	Y22	Z22
177	5.9	815.5177048388236	480.62028925623633	0.0	773.2127502234739	499.8609498665305	0.0	776.726020756082	692.6944488138952	0.0	782.8259192815636	866.5774040943331	0.0	794.5081068195126	933.2638845589933	0.0	766.2989157686831	927.0130277028826	0.0	787.0687001166052	887.4180579430919	0.0	869.9465460348761	488.86765678317926	0.0	816.1504974372881	577.1474425866412	0.0	799.590366270867	755.8672508723201	0.0	783.5792890325392	818.8955740823005	0.0	811.1049089868466	818.6403391526061	0.0	792.6264319041879	771.4496765967466	0.0	802.2976762808602	242.8633114822083	0.0	821.7663121739381	117.89502891449794	0.0	846.0651479049404	182.71585380070232	0.0	727.083147569685	278.73152614876943	0.0	676.0547024018067	403.576560526044	0.0	724.6897335075564	341.9749276049062	0.0	882.6369531744988	278.5258733774696	0.0	907.4158989378217	412.729054146649	0.0	831.6160232608389	343.83928166884624	0.0
178	5.933333333333334	817.5708827861326	476.66676736051494	0.0	776.6187586609014	496.0778752957831	0.0	778.8778299957677	690.7639719139457	0.0	784.2767712348145	860.8817149643905	0.0	795.4939411582618	932.5665683040686	0.0	768.8744104877364	926.7413915154241	0.0	785.1428768031377	881.6896576971537	0.0	875.3471602904377	488.49783857281716	0.0	802.3306535673328	531.2000214217697	0.0	773.3247421986673	722.1568998638106	0.0	739.9599821241123	771.5628067659479	0.0	766.6628310499968	782.0793013437234	0.0	766.2098969697203	738.0562413740774	0.0	803.2113290155744	241.78799147960993	0.0	822.3831507155901	117.61644994253122	0.0	845.41151514542	182.3658292586378	0.0	729.7608684786865	274.1529823330782	0.0	673.0873860662322	396.61478806353375	0.0	722.769080087825	328.1545974496118	0.0	882.4792391525456	274.77250096794427	0.0	904.4869006464181	407.0039341504205	0.0	828.1623887695578	327.5834608653051	0.0
179	5.966666666666667	820.2849248896819	474.6503646555827	0.0	780.5967381211876	494.8392006700807	0.0	781.2279837240924	689.9419097396761	0.0	784.6797556110498	857.4397043096881	0.0	794.2870086870153	931.7763582274066	0.0	770.0441146520207	927.3198517246533	0.0	782.8409011082858	879.2449155457421	0.0	879.3243704812563	491.7294646498435	0.0	789.5095283619726	496.2663611227146	0.0	750.6613906412246	687.8906219071266	0.0	701.4242469502394	717.8528380824483	0.0	725.6341799738395	738.8315855895164	0.0	745.0983445805807	707.333320277698	0.0	806.0244465211459	240.81097171493937	0.0	824.8311441990984	117.51901236330556	0.0	845.7382700557943	183.15206482514253	0.0	733.6358434687688	274.42335064243446	0.0	670.9696546728055	389.9860185512436	0.0	720.5109615281484	311.98694080397826	0.0	882.5895466255332	270.39640265514873	0.0	901.9859272696779	399.7493020942993	0.0	825.6793347825217	310.3259118892699	0.0
180	6.0	822.9770840578021	475.9422960441169	0.0	783.8469331996197	496.3117935667796	0.0	783.7179519214051	689.4285512143094	0.0	784.5414752671293	856.7578492535451	0.0	792.8819455396498	930.1539526601957	0.0	770.5564339437545	927.8015328206253	0.0	782.1766660381568	878.9957841579151	0.0	881.2940190722184	495.13942946258476	0.0	780.5024106154206	466.29898492658174	0.0	733.3357826370933	649.7546907092216	0.0	674.1987768219924	658.8159098886474	0.0	695.8510106012242	686.5813938864508	0.0	727.7824860046026	677.7936194613258	0.0	810.0187025120009	241.22369313727495	0.0	827.2718274901271	117.97005473818935	0.0	846.549561805213	185.4651882529935	0.0	738.7677110316827	279.03818218272596	0.0	669.2421376995313	384.275099504765	0.0	719.0199821054553	296.63870174353997	0.0	883.3550289084512	266.9812434670701	0.0	899.6753928587323	391.84154523289055	0.0	824.3747044158877	294.81980628293843	0.0
181	6.033333333333333	825.352469170829	480.867728147206	0.0	785.8814239969759	499.9343516215789	0.0	786.1046074423637	689.1904193533678	0.0	784.2763791555635	855.6631547346876	0.0	793.3511427525036	927.1867740251072	0.0	771.2605958980457	926.9995132662605	0.0	783.2615153717675	876.7266206952029	0.0	881.6920508272624	496.8144494379434	0.0	777.3180603784457	430.7948788985984	0.0	721.6772341497119	608.5294801845569	0.0	656.4261168197236	602.3366192273875	0.0	676.5806661472013	631.7375850730906	0.0	713.904663403951	645.4633730249446	0.0	813.2412719311264	243.79641291654912	0.0	827.1871193371077	120.39267963431608	0.0	845.6740442766793	189.1965882063002	0.0	743.3306520548789	284.26431364622414	0.0	668.402823889897	379.2940602811838	0.0	719.896815733169	283.48072045717595	0.0	885.4408189162641	266.01482050683245	0.0	899.2941291022524	383.7109326910253	0.0	824.6426635676105	283.46688084584883	0.0
182	6.066666666666666	827.9149593237988	487.19322804188926	0.0	787.8878970670042	504.7521200071049	0.0	787.2420716683614	690.758540987196	0.0	783.9690381594518	854.6798440808996	0.0	793.7100566650372	924.858216112775	0.0	770.6088898049265	926.0490823181627	0.0	785.295467488696	874.266987757303	0.0	880.1581968243173	497.1995419475712	0.0	779.1302102024842	390.72860486842444	0.0	714.5202058003399	571.1849025904984	0.0	643.4694939345877	555.7182701338196	0.0	661.9092401006501	581.9677020956412	0.0	705.3690787299854	611.8570999406172	0.0	813.7737530838344	248.0427101547649	0.0	822.8547791821452	126.63561145401074	0.0	840.6704992748116	194.68446163458714	0.0	745.5479158150725	288.207736889688	0.0	668.921541166603	374.8447037572995	0.0	722.7781233951662	271.93523655004464	0.0	887.4566619095482	267.6608090896655	0.0	903.2815967090656	375.1851523686239	0.0	826.6981385325878	275.8290255347889	0.0
183	6.1	830.8100800883767	491.3445509356769	0.0	791.6816578846594	508.55458537666686	0.0	786.8536713929341	693.4712104507427	0.0	783.5725743969782	855.8934597157611	0.0	791.7190052625881	924.724765576988	0.0	768.0490616388386	926.4845957201912	0.0	787.4137248664423	875.3096232064859	0.0	876.9303360878625	496.19795152060567	0.0	782.4409371497717	357.7363595091941	0.0	710.7308409627913	544.0235128682833	0.0	634.2970439821947	522.8615248820009	0.0	649.6011026518929	543.9198919053816	0.0	702.2224563944867	584.3889967777609	0.0	811.8422734148197	252.3577039701334	0.0	815.9312297823883	135.72774007849392	0.0	832.7431560182938	201.56454049929977	0.0	745.5715441245371	291.1215408358489	0.0	670.0687527304719	371.07880674439383	0.0	725.2610363481131	263.05848264809464	0.0	887.439430067888	270.06012520362134	0.0	910.067829899359	366.9639466540803	0.0	829.0876807826124	269.91794921018743	0.0
184	6.133333333333333	832.8308378634899	491.554839091902	0.0	796.0999264253554	509.3267296422114	0.0	786.7845150548056	694.719548361354	0.0	783.3407166185111	858.5511272840558	0.0	788.7546141467596	926.4475052220823	0.0	765.529090030971	928.4233340565108	0.0	788.9372229307164	879.2783526481664	0.0	874.6590762180672	493.3875075146689	0.0	784.0560686335259	340.0766028167897	0.0	710.3957367164235	529.1010822804358	0.0	629.5601373982469	506.0216742964492	0.0	641.528634722798	523.7631591746004	0.0	702.8962737579084	570.1356517393104	0.0	810.6231223374016	253.46631660478081	0.0	813.476422132298	141.90090237006052	0.0	829.0620641527961	206.42011300262223	0.0	745.3258430801222	290.7188502503118	0.0	671.1846792208582	368.7076481112042	0.0	726.2798767992685	259.2727316665804	0.0	886.2494465483422	269.73006046258354	0.0	913.276185118443	361.36295556300496	0.0	830.3942628994827	266.44741123860877	0.0
